<svg width="850" height="589" viewBox="0 0 850 589" fill="none" xmlns="http://www.w3.org/2000/svg">
  <path d="M50 208 H 190 V 248 H 100 V 320 H 180 V 360 H 100 V 423 H 190 V 463 H 50 Z" fill="white"/>

  <path fill-rule="evenodd" clip-rule="evenodd" d="M240 208 V 463 H 320 C 420 463 430 395 350 335 C 430 275 420 208 320 208 H 240 Z M 290 248 C 360 248 360 295 320 295 C 290 295 290 268 290 248 Z M 290 375 C 370 375 370 423 320 423 C 290 423 290 395 290 375 Z" fill="white"/>

  <g transform="translate(-1130, 0)">
    <path d="M1617.54 463.22V234.86C1617.54 219.948 1629.62 207.86 1644.54 207.86H1668.42V436.22C1668.42 451.131 1656.33 463.22 1641.42 463.22H1617.54Z" fill="white"/>
    <path d="M1616.58 170.9V147.02C1616.58 132.108 1628.66 120.02 1643.58 120.02H1669.86V143.9C1669.86 158.811 1657.77 170.9 1642.86 170.9H1616.58Z" fill="white"/>
  </g>

  <path d="M600 208 L 640 463 L 680 280 L 720 463 L 760 208 H 715 L 680 370 L 645 208 H 600 Z" fill="white"/>
</svg>